<?xml version="1.0" encoding="UTF-8" standalone="no"?>
<!-- Generator: Adobe Illustrator 16.0.0, SVG Export Plug-In . SVG Version: 6.00 Build 0)  -->

<svg
   xmlns:dc="http://purl.org/dc/elements/1.1/"
   xmlns:cc="http://creativecommons.org/ns#"
   xmlns:rdf="http://www.w3.org/1999/02/22-rdf-syntax-ns#"
   xmlns:svg="http://www.w3.org/2000/svg"
   xmlns="http://www.w3.org/2000/svg"
   xmlns:sodipodi="http://sodipodi.sourceforge.net/DTD/sodipodi-0.dtd"
   xmlns:inkscape="http://www.inkscape.org/namespaces/inkscape"
   version="1.1"
   id="Capa_1"
   x="0px"
   y="0px"
   width="50"
   height="50"
   viewBox="0 0 50 50"
   xml:space="preserve"
   sodipodi:docname="sun.svg"
   inkscape:version="0.92.4 5da689c313, 2019-01-14"><metadata
   id="metadata59"><rdf:RDF><cc:Work
       rdf:about=""><dc:format>image/svg+xml</dc:format><dc:type
         rdf:resource="http://purl.org/dc/dcmitype/StillImage" /><dc:title></dc:title></cc:Work></rdf:RDF></metadata><defs
   id="defs57" /><sodipodi:namedview
   pagecolor="#ffffff"
   bordercolor="#666666"
   borderopacity="1"
   objecttolerance="10"
   gridtolerance="10"
   guidetolerance="10"
   inkscape:pageopacity="0"
   inkscape:pageshadow="2"
   inkscape:window-width="1072"
   inkscape:window-height="729"
   id="namedview55"
   showgrid="false"
   inkscape:zoom="5.12"
   inkscape:cx="6.9894609"
   inkscape:cy="9.6127649"
   inkscape:window-x="45"
   inkscape:window-y="0"
   inkscape:window-maximized="0"
   inkscape:current-layer="Capa_1" />
<g
   id="g22"
   style="fill:#ffff10;fill-opacity:1"
   transform="matrix(0.12230995,0,0,0.12230995,0.1953125,0.11169105)">
	<g
   id="g20"
   style="fill:#ffff10;fill-opacity:1">
		<path
   d="m 202.948,118.395 c -46.623,0 -84.561,37.931 -84.561,84.554 0,46.631 37.938,84.562 84.561,84.562 46.624,0 84.561,-37.931 84.561,-84.562 0,-46.624 -37.938,-84.554 -84.561,-84.554 z m 0,141.056 c -31.155,0 -56.502,-25.349 -56.502,-56.502 0,-31.148 25.347,-56.495 56.502,-56.495 31.155,0 56.502,25.347 56.502,56.495 0,31.153 -25.347,56.502 -56.502,56.502 z"
   id="path2"
   style="fill:#ffff10;fill-opacity:1"
   inkscape:connector-curvature="0" />
		<path
   d="m 202.948,98.59 c 7.749,0 14.03,-6.282 14.03,-14.029 V 14.03 c 0,-7.748 -6.281,-14.029 -14.03,-14.029 -7.748,0 -14.029,6.281 -14.029,14.029 v 70.531 c -0.001,7.747 6.28,14.029 14.029,14.029 z"
   id="path4"
   style="fill:#ffff10;fill-opacity:1"
   inkscape:connector-curvature="0" />
		<path
   d="m 286.659,133.274 c 3.59,0 7.187,-1.37 9.926,-4.11 l 49.871,-49.878 c 5.474,-5.479 5.474,-14.365 -0.008,-19.838 -5.479,-5.48 -14.357,-5.48 -19.838,0 l -49.871,49.877 c -5.48,5.48 -5.48,14.365 0,19.839 2.74,2.74 6.33,4.11 9.92,4.11 z"
   id="path6"
   style="fill:#ffff10;fill-opacity:1"
   inkscape:connector-curvature="0" />
		<path
   d="m 391.866,188.919 -70.531,0.007 c -7.754,0 -14.028,6.281 -14.028,14.029 0,7.748 6.282,14.029 14.028,14.029 l 70.531,-0.007 c 7.748,0 14.031,-6.28 14.031,-14.029 0,-7.748 -6.283,-14.029 -14.031,-14.029 z"
   id="path8"
   style="fill:#ffff10;fill-opacity:1"
   inkscape:connector-curvature="0" />
		<path
   d="m 296.571,276.748 c -5.48,-5.479 -14.357,-5.479 -19.838,0 -5.481,5.479 -5.48,14.365 0,19.839 l 49.877,49.87 c 2.74,2.74 6.33,4.109 9.92,4.109 3.59,0 7.186,-1.369 9.926,-4.109 5.474,-5.479 5.474,-14.365 -0.008,-19.838 z"
   id="path10"
   style="fill:#ffff10;fill-opacity:1"
   inkscape:connector-curvature="0" />
		<path
   d="m 202.934,307.306 c -7.748,0 -14.022,6.282 -14.022,14.028 l 0.007,70.531 c 0,7.748 6.281,14.031 14.036,14.031 7.748,0 14.023,-6.283 14.023,-14.031 l -0.008,-70.531 c 0,-7.745 -6.282,-14.028 -14.036,-14.028 z"
   id="path12"
   style="fill:#ffff10;fill-opacity:1"
   inkscape:connector-curvature="0" />
		<path
   d="M 109.303,276.74 59.44,326.619 c -5.474,5.479 -5.474,14.365 0.007,19.838 2.74,2.74 6.329,4.109 9.919,4.109 3.59,0 7.18,-1.369 9.919,-4.109 l 49.864,-49.877 c 5.48,-5.479 5.48,-14.364 0,-19.84 -5.481,-5.48 -14.366,-5.48 -19.846,0 z"
   id="path14"
   style="fill:#ffff10;fill-opacity:1"
   inkscape:connector-curvature="0" />
		<path
   d="m 98.589,202.949 c 0,-7.748 -6.282,-14.029 -14.029,-14.029 H 14.029 C 6.281,188.92 0,195.201 0,202.949 c 0,7.749 6.281,14.03 14.029,14.03 H 84.56 c 7.747,-0.002 14.029,-6.282 14.029,-14.03 z"
   id="path16"
   style="fill:#ffff10;fill-opacity:1"
   inkscape:connector-curvature="0" />
		<path
   d="m 109.317,129.15 c 2.74,2.74 6.33,4.11 9.92,4.11 3.589,0 7.179,-1.37 9.919,-4.11 5.48,-5.48 5.48,-14.365 0,-19.839 L 79.285,59.448 c -5.479,-5.48 -14.365,-5.48 -19.845,0 -5.474,5.479 -5.474,14.365 0.007,19.838 z"
   id="path18"
   style="fill:#ffff10;fill-opacity:1"
   inkscape:connector-curvature="0" />
	</g>
</g>
<g
   id="g24"
   transform="translate(0,-355.897)">
</g>
<g
   id="g26"
   transform="translate(0,-355.897)">
</g>
<g
   id="g28"
   transform="translate(0,-355.897)">
</g>
<g
   id="g30"
   transform="translate(0,-355.897)">
</g>
<g
   id="g32"
   transform="translate(0,-355.897)">
</g>
<g
   id="g34"
   transform="translate(0,-355.897)">
</g>
<g
   id="g36"
   transform="translate(0,-355.897)">
</g>
<g
   id="g38"
   transform="translate(0,-355.897)">
</g>
<g
   id="g40"
   transform="translate(0,-355.897)">
</g>
<g
   id="g42"
   transform="translate(0,-355.897)">
</g>
<g
   id="g44"
   transform="translate(0,-355.897)">
</g>
<g
   id="g46"
   transform="translate(0,-355.897)">
</g>
<g
   id="g48"
   transform="translate(0,-355.897)">
</g>
<g
   id="g50"
   transform="translate(0,-355.897)">
</g>
<g
   id="g52"
   transform="translate(0,-355.897)">
</g>
</svg>